<svg width="50" height="50" viewBox="0 0 50 50" fill="none" xmlns="http://www.w3.org/2000/svg">
<g clip-path="url(#clip0_64_49)">
<path d="M40 22C43.592 22 46 24.382 46 28V38C46 41.618 43.592 44 40 44H10C6.408 44 4 41.118 4 37.5V28C4 24.382 6.408 22 10 22H40ZM20 29H18V38C18 38.625 18.268 38.935 18.5 39.235C18.757 39.563 19.307 40 19.791 40C20.185 40 20.604 40.015 21.021 39.782C21.437 39.574 21.63 39.438 22 39V40H24V29H22V37C21.819 37.233 21.813 37.992 21 38C20.268 38.007 20 37.23 20 37V29ZM28 26H26V40H28V39C28.386 39.451 28.949 40.011 30 40C30.622 39.994 31.103 39.492 31.424 39.1C31.749 38.702 32 38.241 32 37.5V31.5C32 30.637 31.727 30.052 31.378 29.611C31.032 29.17 30.522 28.94 29.873 28.94C29.548 28.94 29.224 29.03 28.9 29.195C28.575 29.357 28.23 29.64 28 30V26ZM18 26H12V28H14V40H16V28H18V26ZM37 36V36.5C37 37.103 36.941 37.566 36.801 37.731C36.663 37.915 36.406 37.996 36 38C35.633 38.004 35.354 37.902 35.216 37.672C35.075 37.463 35 37.103 35 36.546V35H39V31.884C39 30.886 38.834 30.267 38.32 29.734C37.815 29.201 37.149 29 36.198 29C35.249 29 34.37 29.232 33.903 29.711C33.32 30.31 33.003 30.98 33.003 31.884V36.592C33.003 37.615 33.281 38.405 33.811 38.984C34.346 39.563 35.087 39.842 36.038 39.842C37.076 39.842 37.868 39.584 38.376 39.027C38.912 38.494 39 37.685 39 36.592V36H37ZM30 32C30 30.999 29.552 30.5 29 30.5C28.448 30.5 28.009 30.997 28 31.5V37.5C28.009 37.788 28.448 38 29 38C29.552 38 30 37.575 30 37.023V32ZM37 33H35V32C35.009 31.463 35.448 31 36 31C36.552 31 37 31.385 37 32V33Z" fill="#F8FD05"/>
<path d="M20 0L18 6L16 0H14L17 9V15H19V9L22 0H20ZM26 12C26 12.969 25.324 13 25 13C24.7 13 24 12.987 24 12V7C24 6.185 24.433 6 25 6C25.3 6 26 5.998 26 7V12ZM27.24 4.722C26.613 4.146 25.97 4 25 4C23.932 4 23.409 4.168 22.758 4.701C22.133 5.231 21.959 5.638 22 7V12C22 12.996 22.162 13.652 22.765 14.236C23.39 14.815 23.981 15 25 15C26.065 15 26.648 14.816 27.248 14.235C27.875 13.677 28 12.998 28 12V7C28 6.118 27.843 5.279 27.24 4.722ZM34 4V12C33.989 12.683 33.184 13 33 13C32.792 13 32 12.958 32 12V4H30V13C30 13.972 30.98 15 32 15C33.02 15 33.559 14.487 34 14V15H36V4H34Z" fill="#F8FD05"/>
</g>
<defs>
<clipPath id="clip0_64_49">
<rect width="50" height="50" fill="white"/>
</clipPath>
</defs>
</svg>
